<svg width="47" height="48" viewBox="0 0 47 48" fill="none" xmlns="http://www.w3.org/2000/svg">
<path d="M38.7528 29.7372C34.7187 33.7518 28.9416 34.9856 23.8695 33.3993L14.6457 42.6035C13.9799 43.2889 12.6678 43.7001 11.7278 43.5631L7.45865 42.9756C6.04865 42.7797 4.73656 41.4481 4.52115 40.0381L3.93365 35.7689C3.79656 34.8289 4.24698 33.5168 4.89323 32.851L14.0974 23.6468C12.5307 18.5551 13.7449 12.7781 17.7791 8.76348C23.5561 2.98639 32.9366 2.98639 38.7332 8.76348C44.5299 14.5406 44.5299 23.9601 38.7528 29.7372Z" stroke="#AB92F1" stroke-width="2.9375" stroke-miterlimit="10" stroke-linecap="round" stroke-linejoin="round"/>
<path d="M13.4941 34.752L17.9983 39.2561" stroke="#AB92F1" stroke-width="2.9375" stroke-miterlimit="10" stroke-linecap="round" stroke-linejoin="round"/>
<path d="M28.3958 22.042C30.0181 22.042 31.3333 20.7268 31.3333 19.1045C31.3333 17.4822 30.0181 16.167 28.3958 16.167C26.7735 16.167 25.4583 17.4822 25.4583 19.1045C25.4583 20.7268 26.7735 22.042 28.3958 22.042Z" stroke="#AB92F1" stroke-width="2.9375" stroke-linecap="round" stroke-linejoin="round"/>
</svg>
