<svg width="47" height="47" viewBox="0 0 47 47" fill="none" xmlns="http://www.w3.org/2000/svg">
<path d="M23.5 30.3545C27.8279 30.3545 31.3333 26.8491 31.3333 22.5212V11.7503C31.3333 7.42241 27.8279 3.91699 23.5 3.91699C19.172 3.91699 15.6666 7.42241 15.6666 11.7503V22.5212C15.6666 26.8491 19.172 30.3545 23.5 30.3545Z" stroke="#AB92F1" stroke-width="2.9375" stroke-linecap="round" stroke-linejoin="round"/>
<path d="M8.52185 18.8975V22.2266C8.52185 30.4908 15.2389 37.2079 23.5031 37.2079C31.7673 37.2079 38.4843 30.4908 38.4843 22.2266V18.8975" stroke="#AB92F1" stroke-width="2.9375" stroke-linecap="round" stroke-linejoin="round"/>
<path d="M20.7767 12.5921C22.5392 11.9459 24.4584 11.9459 26.2209 12.5921" stroke="#AB92F1" stroke-width="2.9375" stroke-linecap="round" stroke-linejoin="round"/>
<path d="M21.9318 16.7437C22.9697 16.4695 24.0468 16.4695 25.0847 16.7437" stroke="#AB92F1" stroke-width="2.9375" stroke-linecap="round" stroke-linejoin="round"/>
<path d="M23.5 37.208V43.083" stroke="#AB92F1" stroke-width="2.9375" stroke-linecap="round" stroke-linejoin="round"/>
</svg>
