<svg width="47" height="47" viewBox="0 0 47 47" fill="none" xmlns="http://www.w3.org/2000/svg">
<path d="M35.2483 14.021C35.1308 14.0014 34.9937 14.0014 34.8762 14.021C32.1737 13.9231 30.0195 11.7102 30.0195 8.96852C30.0195 6.1681 32.2716 3.91602 35.072 3.91602C37.8724 3.91602 40.1245 6.18769 40.1245 8.96852C40.1049 11.7102 37.9508 13.9231 35.2483 14.021Z" stroke="#AB92F1" stroke-width="2.9375" stroke-linecap="round" stroke-linejoin="round"/>
<path d="M33.23 28.278C35.9129 28.7284 38.87 28.2584 40.9458 26.868C43.707 25.0272 43.707 22.0113 40.9458 20.1705C38.8504 18.7801 35.8541 18.3101 33.1712 18.7801" stroke="#AB92F1" stroke-width="2.9375" stroke-linecap="round" stroke-linejoin="round"/>
<path d="M11.6907 14.021C11.8082 14.0014 11.9453 14.0014 12.0628 14.021C14.7653 13.9231 16.9195 11.7102 16.9195 8.96852C16.9195 6.1681 14.6674 3.91602 11.867 3.91602C9.06654 3.91602 6.81445 6.18769 6.81445 8.96852C6.83404 11.7102 8.98821 13.9231 11.6907 14.021Z" stroke="#AB92F1" stroke-width="2.9375" stroke-linecap="round" stroke-linejoin="round"/>
<path d="M13.7096 28.278C11.0267 28.7284 8.06962 28.2584 5.99379 26.868C3.23254 25.0272 3.23254 22.0113 5.99379 20.1705C8.08921 18.7801 11.0855 18.3101 13.7684 18.7801" stroke="#AB92F1" stroke-width="2.9375" stroke-linecap="round" stroke-linejoin="round"/>
<path d="M23.4977 28.6499C23.3802 28.6303 23.2431 28.6303 23.1256 28.6499C20.4231 28.552 18.2689 26.3391 18.2689 23.5974C18.2689 20.797 20.521 18.5449 23.3214 18.5449C26.1218 18.5449 28.3739 20.8166 28.3739 23.5974C28.3543 26.3391 26.2002 28.5716 23.4977 28.6499Z" stroke="#AB92F1" stroke-width="2.9375" stroke-linecap="round" stroke-linejoin="round"/>
<path d="M17.8001 34.8176C15.0389 36.6585 15.0389 39.6743 17.8001 41.5151C20.9335 43.6105 26.0643 43.6105 29.1976 41.5151C31.9589 39.6743 31.9589 36.6585 29.1976 34.8176C26.0839 32.7418 20.9335 32.7418 17.8001 34.8176Z" stroke="#AB92F1" stroke-width="2.9375" stroke-linecap="round" stroke-linejoin="round"/>
</svg>
