<svg width="40" height="39" viewBox="0 0 40 39" fill="none" xmlns="http://www.w3.org/2000/svg">
    <path d="M35.5424 29.8855C35.5365 30.4555 35.4038 31.0399 35.1288 31.6071C34.8538 32.1743 34.4999 32.7091 34.0355 33.211C33.2509 34.0579 32.3896 34.6666 31.4197 35.0524C30.4657 35.4384 29.4345 35.6337 28.3262 35.6222C26.7113 35.6056 24.9895 35.2078 23.1767 34.4133C21.364 33.6187 19.554 32.555 17.7627 31.2223C15.9556 29.8736 14.2451 28.3834 12.6153 26.7356C11.0015 25.0722 9.5469 23.3313 8.25141 21.5129C6.97176 19.6946 5.94542 17.8789 5.2039 16.082C4.46255 14.2693 4.10036 12.5396 4.11734 10.893C4.12843 9.81642 4.32903 8.78927 4.71881 7.84323C5.10874 6.88137 5.71952 6.00095 6.5668 5.21798C7.59036 4.23098 8.7037 3.7516 9.8753 3.76367C10.3186 3.76824 10.7609 3.86781 11.1548 4.06188C11.5645 4.25611 11.9257 4.54485 12.2064 4.95943L15.8262 10.1745C16.1071 10.5733 16.3092 10.9395 16.4481 11.2893C16.5871 11.6233 16.6629 11.9566 16.6598 12.2574C16.6559 12.6374 16.5411 13.0162 16.3157 13.3781C16.1061 13.7401 15.8014 14.117 15.4175 14.493L14.2013 15.7314C14.0254 15.9038 13.9441 16.1088 13.9415 16.3621C13.9402 16.4888 13.9549 16.5997 13.9852 16.7267C14.0314 16.8539 14.0779 16.9494 14.1086 17.0447C14.3882 17.5701 14.872 18.256 15.5601 19.0864C16.2641 19.9171 17.0154 20.764 17.8301 21.6116C18.6764 22.4596 19.4917 23.2438 20.3234 23.9649C21.1396 24.6701 21.8155 25.1521 22.3508 25.4426C22.4297 25.4751 22.5242 25.5236 22.6345 25.5722C22.7607 25.621 22.8872 25.6381 23.0297 25.6396C23.2988 25.6424 23.5056 25.5495 23.6816 25.3771L24.8971 24.2021C25.297 23.8104 25.6801 23.5135 26.0462 23.3272C26.4126 23.1093 26.7779 23.0023 27.1737 23.0063C27.4745 23.0094 27.7905 23.076 28.1374 23.2221C28.4842 23.3682 28.8462 23.5778 29.2393 23.851L34.4415 27.6257C34.8502 27.9149 35.1317 28.2503 35.3018 28.6479C35.456 29.0454 35.547 29.4422 35.5424 29.8855Z"
          stroke="#263040" stroke-width="2.375" stroke-miterlimit="10"/>
    <path d="M30.2008 15.0575C30.2106 14.1075 29.4815 12.6433 28.3854 11.4444C27.3834 10.3415 26.0465 9.47269 24.7166 9.45898" stroke="#263040" stroke-width="2.375" stroke-linecap="round" stroke-linejoin="round"/>
    <path d="M35.7422 15.114C35.8053 8.98681 30.9009 3.98016 24.7737 3.91699" stroke="#263040" stroke-width="2.375" stroke-linecap="round" stroke-linejoin="round"/>
</svg>
