<svg width="47" height="48" viewBox="0 0 47 48" fill="none" xmlns="http://www.w3.org/2000/svg">
<g id="vuesax/linear/bitcoin-refresh">
<g id="bitcoin-refresh">
<path id="Vector" d="M8.75373 22.8635L5.34624 19.4561L1.95831 22.8635" stroke="#FFA001" stroke-width="2.9375" stroke-linecap="round" stroke-linejoin="round"/>
<path id="Vector_2" d="M38.2487 25.1357L41.6562 28.5432L45.0637 25.1357" stroke="#FFA001" stroke-width="2.9375" stroke-linecap="round" stroke-linejoin="round"/>
<path id="Vector_3" d="M41.6333 28.5437V24.0004C41.6333 13.9737 33.5062 5.86621 23.4991 5.86621C17.7808 5.86621 12.6695 8.52961 9.34033 12.6617" stroke="#FFA001" stroke-width="2.9375" stroke-linecap="round" stroke-linejoin="round"/>
<path id="Vector_4" d="M5.36249 19.4561V23.9994C5.36249 34.0261 13.4896 42.1336 23.4967 42.1336C29.215 42.1336 34.3262 39.4702 37.6554 35.3381" stroke="#FFA001" stroke-width="2.9375" stroke-linecap="round" stroke-linejoin="round"/>
<g id="Group">
<path id="Vector_5" d="M17.625 17.1455H26.2025C28.1021 17.1455 29.6296 18.8688 29.6296 20.5726C29.6296 22.4722 28.1021 23.9997 26.2025 23.9997H17.625V17.1455Z" stroke="#FFA001" stroke-width="2.9375" stroke-miterlimit="10" stroke-linecap="round" stroke-linejoin="round"/>
<path id="Vector_6" d="M17.625 24H27.4167C29.5708 24 31.3333 25.5275 31.3333 27.4271C31.3333 29.3267 29.5708 30.8542 27.4167 30.8542H17.625V24Z" stroke="#FFA001" stroke-width="2.9375" stroke-miterlimit="10" stroke-linecap="round" stroke-linejoin="round"/>
<path id="Vector_7" d="M23.1099 30.8545V34.2816" stroke="#FFA001" stroke-width="2.9375" stroke-miterlimit="10" stroke-linecap="round" stroke-linejoin="round"/>
<path id="Vector_8" d="M23.1099 13.7188V17.1458" stroke="#FFA001" stroke-width="2.9375" stroke-miterlimit="10" stroke-linecap="round" stroke-linejoin="round"/>
</g>
</g>
</g>
</svg>
