<svg width="47" height="48" viewBox="0 0 47 48" fill="none" xmlns="http://www.w3.org/2000/svg">
<g id="vuesax/linear/user-octagon">
<g id="user-octagon">
<path id="Vector" d="M41.282 17.3029V30.6978C41.282 32.8912 40.107 34.9279 38.2074 36.0442L26.5749 42.7612C24.6753 43.8579 22.3253 43.8579 20.4061 42.7612L8.77362 36.0442C6.87404 34.9475 5.69904 32.9107 5.69904 30.6978V17.3029C5.69904 15.1096 6.87404 13.0728 8.77362 11.9566L20.4061 5.23949C22.3057 4.14283 24.6557 4.14283 26.5749 5.23949L38.2074 11.9566C40.107 13.0728 41.282 15.09 41.282 17.3029Z" stroke="#FFA001" stroke-width="2.9375" stroke-linecap="round" stroke-linejoin="round"/>
<g id="Group">
<path id="Vector_2" d="M23.5024 22.0408C26.0224 22.0408 28.0653 19.9979 28.0653 17.4779C28.0653 14.9578 26.0224 12.915 23.5024 12.915C20.9823 12.915 18.9395 14.9578 18.9395 17.4779C18.9395 19.9979 20.9823 22.0408 23.5024 22.0408Z" stroke="#FFA001" stroke-width="2.9375" stroke-linecap="round" stroke-linejoin="round"/>
<path id="Vector_3" d="M31.332 33.1243C31.332 29.5993 27.8266 26.7402 23.4987 26.7402C19.1708 26.7402 15.6653 29.5993 15.6653 33.1243" stroke="#FFA001" stroke-width="2.9375" stroke-linecap="round" stroke-linejoin="round"/>
</g>
</g>
</g>
</svg>
