<svg width="47" height="48" viewBox="0 0 47 48" fill="none" xmlns="http://www.w3.org/2000/svg">
<path d="M23.5 27.9163C25.6631 27.9163 27.4167 26.1628 27.4167 23.9997C27.4167 21.8366 25.6631 20.083 23.5 20.083C21.3369 20.083 19.5833 21.8366 19.5833 23.9997C19.5833 26.1628 21.3369 27.9163 23.5 27.9163Z" stroke="#FFA001" stroke-width="2.9375" stroke-linecap="round" stroke-linejoin="round"/>
<path d="M39.1667 35.75C41.6342 32.4796 43.0833 28.4063 43.0833 24C43.0833 19.5938 41.6342 15.5204 39.1667 12.25" stroke="#FFA001" stroke-width="2.9375" stroke-linecap="round" stroke-linejoin="round"/>
<path d="M7.83333 12.25C5.36583 15.5204 3.91666 19.5938 3.91666 24C3.91666 28.4063 5.36583 32.4796 7.83333 35.75" stroke="#FFA001" stroke-width="2.9375" stroke-linecap="round" stroke-linejoin="round"/>
<path d="M32.8996 31.0502C34.3684 29.0919 35.2496 26.644 35.2496 24.0002C35.2496 21.3565 34.3684 18.9085 32.8996 16.9502" stroke="#FFA001" stroke-width="2.9375" stroke-linecap="round" stroke-linejoin="round"/>
<path d="M14.1 16.9502C12.6313 18.9085 11.75 21.3565 11.75 24.0002C11.75 26.644 12.6313 29.0919 14.1 31.0502" stroke="#FFA001" stroke-width="2.9375" stroke-linecap="round" stroke-linejoin="round"/>
</svg>
