<svg width="47" height="47" viewBox="0 0 47 47" fill="none" xmlns="http://www.w3.org/2000/svg">
<g id="bitcoin-convert">
<path id="Vector" d="M45.0417 31.2744C45.0417 38.8532 38.9121 44.9827 31.3334 44.9827L33.3896 41.5557" stroke="#FFA001" stroke-width="2.9375" stroke-linecap="round" stroke-linejoin="round"/>
<path id="Vector_2" d="M1.95831 15.6077C1.95831 8.029 8.0879 1.89941 15.6666 1.89941L13.6104 5.3265" stroke="#FFA001" stroke-width="2.9375" stroke-linecap="round" stroke-linejoin="round"/>
<g id="Group">
<g id="Group_2">
<path id="Vector_3" d="M12.9639 25.5957H18.4668C19.681 25.5957 20.6797 26.6924 20.6797 27.8086C20.6797 29.0228 19.7005 30.0216 18.4668 30.0216H12.9639V25.5957Z" stroke="#FFA001" stroke-width="2.9375" stroke-miterlimit="10" stroke-linecap="round" stroke-linejoin="round"/>
<path id="Vector_4" d="M12.9639 30.0215H19.2697C20.6601 30.0215 21.796 31.0007 21.796 32.2344C21.796 33.4486 20.6601 34.4473 19.2697 34.4473H12.9639V30.0215Z" stroke="#FFA001" stroke-width="2.9375" stroke-miterlimit="10" stroke-linecap="round" stroke-linejoin="round"/>
<path id="Vector_5" d="M16.4885 34.4277V36.6211" stroke="#FFA001" stroke-width="2.9375" stroke-miterlimit="10" stroke-linecap="round" stroke-linejoin="round"/>
<path id="Vector_6" d="M16.4885 23.4023V25.5957" stroke="#FFA001" stroke-width="2.9375" stroke-miterlimit="10" stroke-linecap="round" stroke-linejoin="round"/>
</g>
<path id="Vector_7" d="M29.0808 30.0215C29.0808 36.6994 23.6758 42.1044 16.9978 42.1044C10.3199 42.1044 4.91492 36.6994 4.91492 30.0215C4.91492 23.3436 10.3199 17.9385 16.9978 17.9385C17.3112 17.9385 17.6049 17.9581 17.9378 17.9777C23.8716 18.4281 28.6108 23.1673 29.0612 29.101C29.0612 29.3948 29.0808 29.6886 29.0808 30.0215Z" stroke="#FFA001" stroke-width="2.9375" stroke-miterlimit="10" stroke-linecap="round" stroke-linejoin="round"/>
<path id="Vector_8" d="M42.1044 16.9784C42.1044 23.6563 36.6994 29.0614 30.0215 29.0614H29.0619C28.6115 23.1276 23.8723 18.3884 17.9386 17.938V16.9784C17.9386 10.3005 23.3436 4.89551 30.0215 4.89551C36.6994 4.89551 42.1044 10.3005 42.1044 16.9784Z" stroke="#FFA001" stroke-width="2.9375" stroke-miterlimit="10" stroke-linecap="round" stroke-linejoin="round"/>
</g>
</g>
</svg>
