<svg width="47" height="48" viewBox="0 0 47 48" fill="none" xmlns="http://www.w3.org/2000/svg">
<path d="M40.9485 22.2769C40.9485 31.8532 33.9964 40.8223 24.4985 43.4465C23.8522 43.6227 23.1472 43.6227 22.501 43.4465C13.003 40.8223 6.05096 31.8532 6.05096 22.2769V13.6798C6.05096 12.074 7.26516 10.2527 8.77308 9.64564L19.6809 5.1807C22.1289 4.18195 24.8901 4.18195 27.338 5.1807L38.246 9.64564C39.7343 10.2527 40.9681 12.074 40.9681 13.6798L40.9485 22.2769Z" stroke="#FFA001" stroke-width="2.9375" stroke-linecap="round" stroke-linejoin="round"/>
<path d="M23.5003 24.9798C25.6635 24.9798 27.417 23.2263 27.417 21.0632C27.417 18.9 25.6635 17.1465 23.5003 17.1465C21.3372 17.1465 19.5837 18.9 19.5837 21.0632C19.5837 23.2263 21.3372 24.9798 23.5003 24.9798Z" stroke="#FFA001" stroke-width="2.9375" stroke-miterlimit="10" stroke-linecap="round" stroke-linejoin="round"/>
<path d="M23.5004 24.9795V30.8545" stroke="#FFA001" stroke-width="2.9375" stroke-miterlimit="10" stroke-linecap="round" stroke-linejoin="round"/>
</svg>
