<svg width="47" height="47" viewBox="0 0 47 47" fill="none" xmlns="http://www.w3.org/2000/svg">
<path d="M4 28.7389H5.11119C6.08426 28.7389 6.57079 28.7389 6.99547 28.5348C7.4181 28.3328 7.72115 27.9514 8.32932 27.1907L11.2155 23.585L14.3079 28.7389L17.4003 21.5234L22.5542 31.8313L29.7697 17.4003L33.8929 24.6158L36.9853 21.5234L39.9642 25.9929C40.4838 26.7722 40.7435 27.1618 41.1228 27.3969C41.1984 27.4436 41.2768 27.4855 41.3579 27.5226C41.7661 27.7082 42.234 27.7082 43.17 27.7082M29.7697 4V10.1847M29.7697 43.17V28.7389" stroke="#187AEC" stroke-width="2.5" stroke-linecap="round" stroke-linejoin="round"/>
<path d="M29.7725 19.4618C30.9111 19.4618 31.8341 18.5388 31.8341 17.4002C31.8341 16.2616 30.9111 15.3386 29.7725 15.3386C28.6339 15.3386 27.7109 16.2616 27.7109 17.4002C27.7109 18.5388 28.6339 19.4618 29.7725 19.4618Z" stroke="#187AEC" stroke-width="2.5" stroke-linecap="round" stroke-linejoin="round"/>
<path d="M17.7083 43.1667H29.4583C39.25 43.1667 43.1667 39.25 43.1667 29.4583V17.7083C43.1667 7.91667 39.25 4 29.4583 4H17.7083C7.91667 4 4 7.91667 4 17.7083V29.4583C4 39.25 7.91667 43.1667 17.7083 43.1667Z" stroke="#187AEC" stroke-width="2.9375" stroke-linecap="round" stroke-linejoin="round"/>
</svg>
