<svg width="47" height="47" viewBox="0 0 47 47" fill="none" xmlns="http://www.w3.org/2000/svg">
<path d="M23.5001 15.4509L21.4047 19.0934C20.9347 19.8963 21.3264 20.5622 22.2468 20.5622H24.7339C25.6739 20.5622 26.046 21.228 25.576 22.0309L23.5001 25.6734" stroke="#187AEC" stroke-width="2.9375" stroke-linecap="round" stroke-linejoin="round"/>
<path d="M16.253 35.3281V33.0564C11.7488 30.3344 8.04755 25.0273 8.04755 19.3873C8.04755 9.69352 16.958 2.09519 27.0238 4.28852C31.4496 5.26769 35.3271 8.20519 37.3442 12.2589C41.4371 20.4839 37.1288 29.2181 30.8034 33.0369V35.3085C30.8034 35.8764 31.0188 37.1885 28.9234 37.1885H18.133C15.9788 37.2081 16.253 36.366 16.253 35.3281Z" stroke="#187AEC" stroke-width="2.9375" stroke-linecap="round" stroke-linejoin="round"/>
<path d="M16.6458 43.0833C21.1304 41.8104 25.8696 41.8104 30.3541 43.0833" stroke="#187AEC" stroke-width="2.9375" stroke-linecap="round" stroke-linejoin="round"/>
</svg>
