<svg width="47" height="47" viewBox="0 0 47 47" fill="none" xmlns="http://www.w3.org/2000/svg">
<path d="M43.0833 12.2397V22.2271C43.0833 24.7142 42.2608 26.8096 40.7921 28.2588C39.3429 29.7276 37.2475 30.55 34.7604 30.55V34.0946C34.7604 35.4263 33.2721 36.2292 32.1754 35.4851L30.2758 34.2317C30.4521 33.6246 30.5304 32.9588 30.5304 32.2538V24.2835C30.5304 20.2885 27.8671 17.6251 23.8721 17.6251H10.575C10.3008 17.6251 10.0462 17.6447 9.79166 17.6643V12.2397C9.79166 7.24591 13.1208 3.91675 18.1146 3.91675H34.7604C39.7542 3.91675 43.0833 7.24591 43.0833 12.2397Z" stroke="#187AEC" stroke-width="2.9375" stroke-miterlimit="10" stroke-linecap="round" stroke-linejoin="round"/>
<path d="M30.5304 24.2834V32.2537C30.5304 32.9587 30.4521 33.6245 30.2758 34.2316C29.5513 37.1104 27.1621 38.9121 23.8721 38.9121H18.5454L12.6312 42.8483C11.75 43.4554 10.575 42.8092 10.575 41.7517V38.9121C8.57749 38.9121 6.91292 38.2463 5.7575 37.0908C4.5825 35.9158 3.91666 34.2512 3.91666 32.2537V24.2834C3.91666 20.5625 6.2275 17.9971 9.79166 17.6642C10.0462 17.6446 10.3008 17.625 10.575 17.625H23.8721C27.8671 17.625 30.5304 20.2884 30.5304 24.2834Z" stroke="#187AEC" stroke-width="2.9375" stroke-miterlimit="10" stroke-linecap="round" stroke-linejoin="round"/>
</svg>
