<svg width="47" height="47" viewBox="0 0 47 47" fill="none" xmlns="http://www.w3.org/2000/svg">
<path d="M8.75245 22.3547L5.34495 18.9473L1.95703 22.3547" stroke="#187AEC" stroke-width="2.9375" stroke-linecap="round" stroke-linejoin="round"/>
<path d="M38.25 24.626L41.6575 28.0335L45.065 24.626" stroke="#187AEC" stroke-width="2.9375" stroke-linecap="round" stroke-linejoin="round"/>
<path d="M41.6328 28.034V23.4906C41.6328 13.464 33.5057 5.35645 23.4986 5.35645C17.7803 5.35645 12.669 8.01984 9.33984 12.1519" stroke="#187AEC" stroke-width="2.9375" stroke-linecap="round" stroke-linejoin="round"/>
<path d="M5.36328 18.9473V23.4906C5.36328 33.5173 13.4904 41.6248 23.4975 41.6248C29.2158 41.6248 34.327 38.9614 37.6562 34.8293" stroke="#187AEC" stroke-width="2.9375" stroke-linecap="round" stroke-linejoin="round"/>
<path d="M18.3008 26.9825C18.3008 29.1927 19.997 30.9746 22.1044 30.9746H26.4048C28.2381 30.9746 29.7287 29.4155 29.7287 27.4965C29.7287 25.4063 28.8206 24.6695 27.4671 24.1898L20.5624 21.7911C19.2088 21.3114 18.3008 20.5747 18.3008 18.4844C18.3008 16.5655 19.7914 15.0063 21.6246 15.0063H25.9251C28.0325 15.0063 29.7287 16.7882 29.7287 18.9984" stroke="#187AEC" stroke-width="2.57" stroke-linecap="round" stroke-linejoin="round"/>
<path d="M24 12.7104V33.2704" stroke="#187AEC" stroke-width="2.57" stroke-linecap="round" stroke-linejoin="round"/>
</svg>
