<svg width="47" height="47" viewBox="0 0 47 47" fill="none" xmlns="http://www.w3.org/2000/svg">
<path d="M12.7292 3.9069V17.6152" stroke="#187AEC" stroke-width="2.9375" stroke-miterlimit="10" stroke-linecap="round" stroke-linejoin="round"/>
<path d="M12.7292 37.1987V43.0737" stroke="#187AEC" stroke-width="2.9375" stroke-miterlimit="10" stroke-linecap="round" stroke-linejoin="round"/>
<path d="M34.2709 3.90674V9.78174" stroke="#187AEC" stroke-width="2.9375" stroke-miterlimit="10" stroke-linecap="round" stroke-linejoin="round"/>
<path d="M34.2709 29.3654V43.0737" stroke="#187AEC" stroke-width="2.9375" stroke-miterlimit="10" stroke-linecap="round" stroke-linejoin="round"/>
<path d="M18.6042 33.2821V21.5321C18.6042 19.3779 17.625 17.6154 14.6875 17.6154H10.7709C7.83335 17.6154 6.85419 19.3779 6.85419 21.5321V33.2821C6.85419 35.4362 7.83335 37.1987 10.7709 37.1987H14.6875C17.625 37.1987 18.6042 35.4362 18.6042 33.2821Z" stroke="#187AEC" stroke-width="2.9375" stroke-miterlimit="10" stroke-linecap="round" stroke-linejoin="round"/>
<path d="M40.1459 25.4486V13.6986C40.1459 11.5444 39.1667 9.7819 36.2292 9.7819H32.3125C29.375 9.7819 28.3959 11.5444 28.3959 13.6986V25.4486C28.3959 27.6027 29.375 29.3652 32.3125 29.3652H36.2292C39.1667 29.3652 40.1459 27.6027 40.1459 25.4486Z" stroke="#187AEC" stroke-width="2.9375" stroke-miterlimit="10" stroke-linecap="round" stroke-linejoin="round"/>
</svg>
