<svg width="47" height="48" viewBox="0 0 47 48" fill="none" xmlns="http://www.w3.org/2000/svg">
<path d="M43.0821 9.63612V33.2732C43.0821 35.1532 41.5547 36.9157 39.6747 37.1507L39.0284 37.2291C34.7592 37.797 28.1792 39.9707 24.4192 42.0465C23.91 42.3403 23.068 42.3403 22.5392 42.0465L22.4608 42.0074C18.7008 39.9512 12.1405 37.797 7.89094 37.2291L7.32295 37.1507C5.44295 36.9157 3.91547 35.1532 3.91547 33.2732V9.61652C3.91547 7.2861 5.815 5.52362 8.14541 5.71946C12.2579 6.05237 18.4854 8.12826 21.9712 10.302L22.4608 10.5957C23.0287 10.9482 23.9689 10.9482 24.5368 10.5957L24.8697 10.3803C26.1034 9.61655 27.67 8.85279 29.3738 8.16737V16.1574L33.2905 13.5528L37.2071 16.1574V5.93496C37.7359 5.83705 38.2451 5.77823 38.7151 5.73906H38.8326C41.163 5.54323 43.0821 7.28612 43.0821 9.63612Z" stroke="#187AEC" stroke-width="2.9375" stroke-linecap="round" stroke-linejoin="round"/>
<path d="M23.5 11.2422V40.6172" stroke="#187AEC" stroke-width="2.9375" stroke-linecap="round" stroke-linejoin="round"/>
<path d="M37.2083 5.93506V16.1575L33.2917 13.5529L29.375 16.1575V8.16747C31.9404 7.14913 34.7996 6.32673 37.2083 5.93506Z" stroke="#187AEC" stroke-width="2.9375" stroke-linecap="round" stroke-linejoin="round"/>
</svg>
