<svg width="47" height="47" viewBox="0 0 47 47" fill="none" xmlns="http://www.w3.org/2000/svg">
<path d="M21.0499 4.78795C22.4012 3.63253 24.6141 3.63253 25.9849 4.78795L29.0791 7.45149C29.6666 7.96066 30.7632 8.37185 31.5466 8.37185H34.8758C36.9516 8.37185 38.6553 10.0755 38.6553 12.1513V15.4806C38.6553 16.2444 39.0666 17.3606 39.5758 17.9481L42.2391 21.0422C43.3945 22.3935 43.3945 24.6064 42.2391 25.9773L39.5758 29.0713C39.0666 29.6588 38.6553 30.7555 38.6553 31.5389V34.8682C38.6553 36.944 36.9516 38.6476 34.8758 38.6476H31.5466C30.7828 38.6476 29.6666 39.0588 29.0791 39.568L25.9849 42.2313C24.6337 43.3867 22.4208 43.3867 21.0499 42.2313L17.9558 39.568C17.3683 39.0588 16.2716 38.6476 15.4883 38.6476H12.1003C10.0245 38.6476 8.32077 36.944 8.32077 34.8682V31.5192C8.32077 30.7555 7.90954 29.6588 7.41995 29.0713L4.77619 25.9576C3.64036 24.6064 3.64036 22.4131 4.77619 21.0618L7.41995 17.9481C7.90954 17.3606 8.32077 16.264 8.32077 15.5002V12.1513C8.32077 10.0755 10.0245 8.37185 12.1003 8.37185H15.4883C16.252 8.37185 17.3683 7.96066 17.9558 7.45149L21.0499 4.78795Z" stroke="#187AEC" stroke-width="2.9375" stroke-linecap="round" stroke-linejoin="round"/>
<path d="M19.3701 29.0126L22.2096 31.2059C22.5817 31.578 23.4043 31.7543 23.9526 31.7543H27.4188C28.5155 31.7543 29.7101 30.9319 29.9842 29.8352L32.1776 23.1376C32.628 21.8647 31.8055 20.7485 30.4347 20.7485H26.7726C26.2243 20.7485 25.7738 20.2982 25.8522 19.652L26.3026 16.7145C26.4788 15.892 25.9305 14.9715 25.108 14.6973C24.3834 14.4232 23.463 14.7952 23.0909 15.3435L19.3309 20.9247" stroke="#187AEC" stroke-width="2.9375" stroke-miterlimit="10"/>
<path d="M14.6875 29.0128V20.0437C14.6875 18.7512 15.2358 18.3008 16.5283 18.3008H17.4488C18.7217 18.3008 19.2896 18.7512 19.2896 20.0437V29.0128C19.2896 30.2857 18.7413 30.7558 17.4488 30.7558H16.5283C15.2358 30.7558 14.6875 30.3053 14.6875 29.0128Z" stroke="#187AEC" stroke-width="2.9375" stroke-linecap="round" stroke-linejoin="round"/>
</svg>
