<svg width="47" height="48" viewBox="0 0 47 48" fill="none" xmlns="http://www.w3.org/2000/svg">
<g id="tabler:pig-money">
<g id="Group">
<path id="Vector" d="M29.3776 21.6972V21.7168M10.1331 16.5624C9.27415 15.9023 8.61447 15.0175 8.22695 14.0059C7.83943 12.9943 7.73916 11.8952 7.93723 10.8302C8.13529 9.76512 8.62397 8.77557 9.34926 7.9709C10.0745 7.16622 11.0082 6.57775 12.047 6.27052C13.0858 5.96329 14.1894 5.94926 15.2357 6.23C16.282 6.51073 17.2303 7.0753 17.9758 7.86128C18.7213 8.64727 19.235 9.62408 19.46 10.6837C19.6851 11.7434 19.6128 12.8447 19.2511 13.8658" stroke="#187AEC" stroke-width="2.94" stroke-linecap="round" stroke-linejoin="round"/>
<path id="Vector_2" d="M31.3354 7.98926V15.4368C33.7589 16.8393 35.6041 19.0587 36.5406 21.6976H39.1667C39.6861 21.6976 40.1842 21.9039 40.5515 22.2712C40.9187 22.6384 41.1251 23.1365 41.1251 23.6559V27.5726C41.1251 28.092 40.9187 28.5901 40.5515 28.9573C40.1842 29.3246 39.6861 29.5309 39.1667 29.5309H36.5386C35.8806 31.3913 34.7624 33.0559 33.2917 34.3739V38.3434C33.2917 39.1225 32.9822 39.8697 32.4314 40.4205C31.8805 40.9714 31.1333 41.2809 30.3542 41.2809C29.5752 41.2809 28.828 40.9714 28.2771 40.4205C27.7262 39.8697 27.4167 39.1225 27.4167 38.3434V37.2017C26.7696 37.3105 26.1146 37.3649 25.4584 37.3643H17.6251C16.9689 37.3649 16.3138 37.3105 15.6667 37.2017V38.3434C15.6667 39.1225 15.3572 39.8697 14.8064 40.4205C14.2555 40.9714 13.5083 41.2809 12.7292 41.2809C11.9502 41.2809 11.203 40.9714 10.6521 40.4205C10.1012 39.8697 9.79173 39.1225 9.79173 38.3434V34.3739C8.01741 32.7876 6.76665 30.6998 6.20501 28.387C5.64337 26.0742 5.79734 23.6453 6.64653 21.4219C7.49572 19.1985 9.0001 17.2854 10.9605 15.9358C12.921 14.5863 15.245 13.8639 17.6251 13.8643H22.5209L31.3354 7.98926Z" stroke="#187AEC" stroke-width="2.94" stroke-linecap="round" stroke-linejoin="round"/>
</g>
</g>
</svg>
