<svg width="47" height="47" viewBox="0 0 47 47" fill="none" xmlns="http://www.w3.org/2000/svg">
<path d="M33.2917 43.0737H13.7083C5.875 43.0737 3.91666 41.1154 3.91666 33.2821V29.3654C3.91666 21.5321 5.875 19.5737 13.7083 19.5737H33.2917C41.125 19.5737 43.0833 21.5321 43.0833 29.3654V33.2821C43.0833 41.1154 41.125 43.0737 33.2917 43.0737Z" stroke="#187AEC" stroke-width="2.9375" stroke-linecap="round" stroke-linejoin="round"/>
<path d="M11.75 19.5734V15.6567C11.75 9.17466 13.7083 3.90674 23.5 3.90674C32.3125 3.90674 35.25 7.82341 35.25 13.6984" stroke="#187AEC" stroke-width="2.9375" stroke-linecap="round" stroke-linejoin="round"/>
<path d="M23.5 36.2194C26.2039 36.2194 28.3958 34.0275 28.3958 31.3236C28.3958 28.6197 26.2039 26.4277 23.5 26.4277C20.7961 26.4277 18.6042 28.6197 18.6042 31.3236C18.6042 34.0275 20.7961 36.2194 23.5 36.2194Z" stroke="#187AEC" stroke-width="2.9375" stroke-linecap="round" stroke-linejoin="round"/>
</svg>
