<svg width="47" height="48" viewBox="0 0 47 48" fill="none" xmlns="http://www.w3.org/2000/svg">
<path d="M16.9788 27.9067H7.83335C5.67919 27.9067 3.91669 29.6692 3.91669 31.8234V43.5734H16.9788V27.9067Z" stroke="#187AEC" stroke-width="2.9375" stroke-miterlimit="10" stroke-linecap="round" stroke-linejoin="round"/>
<path d="M26.1049 20.0737H20.8761C18.722 20.0737 16.9595 21.8362 16.9595 23.9904V43.5737H30.0216V23.9904C30.0216 21.8362 28.2786 20.0737 26.1049 20.0737Z" stroke="#187AEC" stroke-width="2.9375" stroke-miterlimit="10" stroke-linecap="round" stroke-linejoin="round"/>
<path d="M39.163 33.7817H30.0176V43.5734H43.0797V37.6984C43.0797 35.5442 41.3172 33.7817 39.163 33.7817Z" stroke="#187AEC" stroke-width="2.9375" stroke-miterlimit="10" stroke-linecap="round" stroke-linejoin="round"/>
<path d="M24.5153 4.54376L25.5532 6.61959C25.6903 6.91334 26.0624 7.1875 26.3757 7.22667L28.2557 7.54001C29.4503 7.73584 29.7441 8.61705 28.8824 9.45914L27.4136 10.9279C27.1591 11.1825 27.022 11.6525 27.1003 11.9854L27.5116 13.7871C27.8445 15.2167 27.0807 15.765 25.8274 15.0209L24.0649 13.9829C23.7516 13.7871 23.2228 13.7871 22.9095 13.9829L21.147 15.0209C19.8936 15.765 19.1299 15.2167 19.4628 13.7871L19.8741 11.9854C19.9524 11.6525 19.8153 11.1629 19.5607 10.9279L18.1116 9.47874C17.2499 8.61707 17.5241 7.75538 18.7382 7.55955L20.6182 7.24627C20.9316 7.18752 21.3036 6.91336 21.4407 6.63919L22.4786 4.5633C23.0466 3.42747 23.9474 3.42751 24.5153 4.54376Z" stroke="#187AEC" stroke-width="2.9375" stroke-linecap="round" stroke-linejoin="round"/>
</svg>
